<?xml version="1.0" encoding="UTF-8"?>
<svg id="Layer_2" data-name="Layer 2" xmlns="http://www.w3.org/2000/svg" viewBox="0 0 1103.82 344.92">
  <defs>
    <style>
      .cls-1 {
        fill: #a196a5;
      }

      .cls-2 {
        fill: #56358b;
      }

      .cls-3 {
        fill: #56368b;
      }
    </style>
  </defs>
  <g id="Capa_1" data-name="Capa 1">
    <g>
      <path class="cls-3" d="M349.81,109.51c-4.66-9.4-11.05-16.81-19.15-22.24-8.1-5.42-17.35-8.14-27.74-8.14-7.03,0-13.72,1.26-20.06,3.78-6.35,2.52-11.58,5.85-15.71,9.97-.57.57-1.11,1.16-1.63,1.75l-.67-13.21h-34.85v172.19h36.92v-62.82c4.28,4.43,9.55,7.95,15.82,10.55,6.27,2.6,12.84,3.9,19.72,3.9,10.55,0,19.91-2.71,28.09-8.14,8.17-5.42,14.6-12.88,19.26-22.35,4.66-9.48,6.99-20.33,6.99-32.56s-2.33-23.27-6.99-32.67ZM317.59,159.15c-2.29,4.74-5.5,8.45-9.63,11.12-4.13,2.68-8.94,4.01-14.44,4.01s-10.55-1.34-14.67-4.01c-4.13-2.67-7.34-6.38-9.63-11.12-2.29-4.74-3.44-10.39-3.44-16.97s1.15-12.07,3.44-16.97c2.29-4.89,5.5-8.64,9.63-11.24,4.13-2.6,9.02-3.9,14.67-3.9s10.51,1.34,14.56,4.01c4.05,2.67,7.22,6.42,9.51,11.23,2.29,4.81,3.44,10.43,3.44,16.85s-1.15,12.23-3.44,16.97Z"/>
      <path class="cls-3" d="M488.42,115.82c-2.75-7.49-6.73-13.99-11.92-19.49-5.2-5.5-11.35-9.78-18.46-12.84-7.11-3.06-14.94-4.58-23.5-4.58-9.02,0-17.31,1.57-24.88,4.7-7.57,3.13-14.1,7.57-19.6,13.3-5.5,5.73-9.78,12.5-12.84,20.29-3.06,7.79-4.58,16.36-4.58,25.68,0,12.08,2.75,22.81,8.25,32.22,5.5,9.4,13.22,16.82,23.16,22.24,9.94,5.43,21.63,8.14,35.08,8.14,5.5,0,11.04-.65,16.62-1.95,5.58-1.3,11.04-3.25,16.39-5.85,5.35-2.6,10.39-5.96,15.13-10.09l-17.2-24.31c-4.74,3.67-9.14,6.27-13.18,7.8-4.05,1.53-8.68,2.29-13.87,2.29-7.49,0-13.95-1.38-19.38-4.13-5.43-2.75-9.56-6.61-12.38-11.58-1.31-2.29-2.3-4.78-3-7.45h83.6l.23-9.86c.31-8.86-.92-17.04-3.67-24.53ZM410.23,123.5c2.14-4.51,5.31-7.95,9.52-10.32,4.2-2.37,9.29-3.56,15.25-3.56,4.28,0,8.1.84,11.47,2.52,3.36,1.68,6.07,4.01,8.14,6.99,2.06,2.98,3.25,6.38,3.55,10.2v.23h-49.96c.52-2.18,1.16-4.24,2.04-6.07Z"/>
      <path class="cls-3" d="M625.53,101.26c-3.21-7.41-7.95-12.99-14.22-16.74-6.27-3.74-13.99-5.62-23.16-5.62-6.73,0-13.15,1.38-19.26,4.13-6.12,2.75-11.35,6.38-15.71,10.89-.78.81-1.47,1.66-2.17,2.5l-.69-15h-34.85v121.75h36.68v-72.91c0-2.9.57-5.58,1.72-8.03,1.15-2.44,2.71-4.62,4.7-6.53,1.98-1.91,4.36-3.36,7.11-4.36,2.75-.99,5.73-1.49,8.94-1.49,4.13-.15,7.6.57,10.43,2.18,2.82,1.6,4.93,4.01,6.3,7.22,1.38,3.21,2.06,7.26,2.06,12.15v71.77h36.92v-74.75c0-10.7-1.6-19.75-4.81-27.17Z"/>
      <path class="cls-1" d="M717.57,205.66c-12.26,0-23.19-2.94-32.79-8.82-9.61-5.88-17.18-13.91-22.73-24.09-5.55-10.18-8.32-21.73-8.32-34.65s2.77-24.47,8.32-34.65c5.55-10.19,13.12-18.17,22.73-23.97,9.6-5.8,20.62-8.69,33.04-8.69,11.09,0,21.2,2.2,30.3,6.58,9.1,4.39,16.39,10.48,21.86,18.26l-10.93,13.41c-3.15-4.14-6.92-7.78-11.3-10.93-4.39-3.15-9.11-5.59-14.16-7.33-5.05-1.74-10.06-2.61-15.03-2.61-8.78,0-16.64,2.2-23.6,6.58-6.96,4.39-12.46,10.31-16.52,17.76-4.06,7.45-6.09,15.98-6.09,25.59s2.03,18.17,6.09,25.71c4.06,7.54,9.56,13.46,16.52,17.76,6.95,4.31,14.74,6.46,23.35,6.46,4.97,0,9.85-.78,14.65-2.36,4.8-1.57,9.36-3.85,13.66-6.83,4.3-2.98,8.28-6.71,11.92-11.18l10.93,13.41c-5.63,7.45-13.17,13.41-22.6,17.88-9.44,4.47-19.21,6.71-29.31,6.71Z"/>
      <path class="cls-1" d="M888.09,94.13c-3.23-7.95-8.16-13.82-14.78-17.64-6.62-3.81-14.9-5.71-24.84-5.71-6.95,0-13.78,1.49-20.49,4.47-6.71,2.98-12.54,7.08-17.51,12.3-2.58,2.71-4.73,5.64-6.46,8.77V19.36h-18.63v183.81h18.63v-78.99c0-4.97.99-9.6,2.98-13.91,1.99-4.3,4.72-8.11,8.2-11.43,3.48-3.31,7.62-5.92,12.42-7.82,4.8-1.9,9.94-2.86,15.4-2.86,6.96-.16,12.75,1.08,17.39,3.73,4.64,2.65,8.07,6.75,10.31,12.29,2.23,5.55,3.35,12.63,3.35,21.24v77.75h18.88v-78.74c0-12.25-1.62-22.35-4.84-30.3Z"/>
      <g>
        <rect class="cls-1" x="925.22" y="73.51" width="18.63" height="129.66"/>
        <path class="cls-1" d="M944.85,21.97c-2.48-2.4-5.96-3.6-10.43-3.6s-7.95,1.24-10.43,3.73c-2.48,2.48-3.73,5.8-3.73,9.94s1.2,7.41,3.6,9.81c2.4,2.4,5.92,3.6,10.56,3.6s7.95-1.24,10.43-3.73c2.48-2.48,3.73-5.71,3.73-9.69,0-4.3-1.24-7.66-3.73-10.06Z"/>
      </g>
      <path class="cls-1" d="M1095.62,103.57c-5.46-10.1-12.79-18.05-21.98-23.85-9.19-5.8-19.58-8.69-31.17-8.69-7.95,0-15.49,1.58-22.6,4.72-7.12,3.15-13.17,7.33-18.13,12.54-2.59,2.72-4.69,5.59-6.34,8.6l-.37-23.38h-18.63v184.31h18.88v-77.49c1.58,2.52,3.47,4.97,5.71,7.32,5.13,5.38,11.34,9.73,18.63,13.04,7.28,3.31,14.99,4.97,23.1,4.97,11.59,0,22.02-2.94,31.3-8.82,9.27-5.88,16.56-13.87,21.86-23.97,5.3-10.1,7.95-21.61,7.95-34.53s-2.73-24.67-8.2-34.77ZM1079.22,163.68c-3.97,7.45-9.36,13.33-16.15,17.64-6.79,4.31-14.58,6.46-23.35,6.46s-16.6-2.15-23.47-6.46c-6.87-4.3-12.3-10.19-16.27-17.64-3.97-7.45-5.96-15.98-5.96-25.59s1.99-18.13,5.96-25.59c3.97-7.45,9.4-13.29,16.27-17.51,6.87-4.22,14.7-6.33,23.47-6.33s16.56,2.15,23.35,6.46c6.79,4.31,12.17,10.18,16.15,17.64,3.97,7.45,5.96,15.98,5.96,25.59s-1.99,17.88-5.96,25.34Z"/>
      <path class="cls-2" d="M181.19,81.33h-5.03v-28.77c4.85-1.94,8.28-6.67,8.28-12.22,0-7.27-5.89-13.16-13.16-13.16s-13.16,5.89-13.16,13.16c0,5.54,3.43,10.28,8.28,12.22v28.77h-19.23V25.37c4.85-1.94,8.28-6.67,8.28-12.22,0-7.27-5.89-13.16-13.16-13.16s-13.16,5.89-13.16,13.16c0,5.54,3.43,10.28,8.28,12.22v55.95h-19.23v-18.21c4.85-1.94,8.28-6.67,8.28-12.22,0-7.27-5.89-13.16-13.16-13.16s-13.16,5.89-13.16,13.16c0,5.54,3.43,10.28,8.28,12.22v18.21h-5.03c-12.79,0-23.15,10.37-23.15,23.15v5.03h-27.72c-1.94-4.85-6.67-8.28-12.22-8.28-7.27,0-13.16,5.89-13.16,13.16s5.89,13.16,13.16,13.16c5.54,0,10.28-3.43,12.22-8.28h27.72v19.23H25.37c-1.94-4.85-6.67-8.28-12.22-8.28-7.27,0-13.16,5.89-13.16,13.16s5.89,13.16,13.16,13.16c5.54,0,10.28-3.43,12.22-8.28h54.91v19.23h-17.16c-1.94-4.85-6.67-8.28-12.22-8.28-7.27,0-13.16,5.89-13.16,13.16s5.89,13.16,13.16,13.16c5.54,0,10.28-3.43,12.21-8.28h17.16v5.02c0,12.79,10.37,23.15,23.15,23.15h5.03v28.69c-4.85,1.94-8.28,6.67-8.28,12.21,0,7.27,5.89,13.16,13.16,13.16s13.16-5.89,13.16-13.16c0-5.54-3.43-10.28-8.28-12.21v-28.69h19.23v55.87c-4.85,1.94-8.28,6.67-8.28,12.22,0,7.27,5.89,13.16,13.16,13.16s13.16-5.89,13.16-13.16c0-5.54-3.43-10.28-8.28-12.22v-55.87h19.23v18.12c-4.85,1.94-8.28,6.67-8.28,12.22,0,7.27,5.89,13.16,13.16,13.16s13.16-5.89,13.16-13.16c0-5.54-3.43-10.28-8.28-12.22v-18.12h5.03c12.79,0,23.15-10.37,23.15-23.15v-77.76c0-12.79-10.37-23.15-23.15-23.15ZM147.42,168.92c-18.38,3.48-34.19-12.33-30.71-30.71,1.95-10.27,10.23-18.55,20.5-20.5,18.38-3.48,34.19,12.33,30.71,30.71-1.95,10.27-10.23,18.55-20.5,20.5Z"/>
      <path class="cls-1" d="M370.6,282.19h27.1l-1.79,8.39h-18.16l-2.41,11.21h16.58l-1.86,8.39h-16.44l-2.54,11.76h18.5l-1.72,8.39h-27.45l10.18-48.15Z"/>
      <path class="cls-1" d="M414.21,330.34l4.54-21.22c.27-1.28.41-2.4.41-3.35s-.2-1.79-.62-2.36c-.41-.57-1.16-.85-2.26-.85-.82,0-1.64.2-2.46.61-.82.41-1.6.96-2.32,1.64-.73.68-1.41,1.45-2.05,2.29s-1.18,1.7-1.64,2.57l-4.4,20.67h-8.53l7.29-34.39h6.47l-.34,6.05h.27c.6-.73,1.29-1.51,2.1-2.34.8-.82,1.73-1.58,2.79-2.27,1.05-.69,2.23-1.26,3.54-1.72,1.31-.46,2.78-.69,4.44-.69,2.06,0,3.71.56,4.95,1.68,1.24,1.12,1.86,2.99,1.86,5.61,0,.69-.03,1.42-.1,2.2-.07.78-.22,1.63-.45,2.55l-4.95,23.32h-8.53Z"/>
      <path class="cls-1" d="M460.02,316.58c-.37,1.74-.63,3.51-.79,5.3-.16,1.79-.24,3.49-.24,5.09,0,.64.01,1.25.03,1.82.02.57.06,1.11.1,1.62h-6.26l-.96-5.92h-.27c-.51.82-1.16,1.64-1.96,2.44s-1.68,1.54-2.65,2.2c-.96.66-1.98,1.19-3.06,1.58-1.08.39-2.19.58-3.34.58-3.03,0-5.26-.99-6.71-2.96-1.44-1.97-2.17-4.61-2.17-7.91s.43-6.56,1.27-9.63c.85-3.07,2.17-5.78,3.96-8.12,1.79-2.34,4.05-4.21,6.77-5.61s5.97-2.1,9.73-2.1c1.6,0,3.36.15,5.26.45,1.9.3,3.75.7,5.54,1.21l-4.26,19.95ZM443.85,324.28c.82,0,1.6-.17,2.34-.52.73-.35,1.41-.8,2.03-1.35.62-.55,1.17-1.15,1.65-1.8s.9-1.24,1.27-1.8l3.44-16.13c-.51-.23-1.09-.4-1.75-.52s-1.32-.17-1.96-.17c-1.65,0-3.12.5-4.4,1.49-1.28.99-2.37,2.28-3.27,3.88-.89,1.59-1.57,3.39-2.03,5.4-.46,2.01-.69,4.03-.69,6.06,0,1.48.24,2.76.72,3.84.48,1.08,1.36,1.63,2.65,1.63Z"/>
      <path class="cls-1" d="M475.35,282.19h8.53l-4.27,19.81h.27c.59-.82,1.28-1.64,2.06-2.44s1.63-1.54,2.57-2.2,1.95-1.2,3.05-1.62c1.1-.41,2.31-.62,3.63-.62,2.47,0,4.32.87,5.55,2.62,1.23,1.74,1.85,4.06,1.85,6.95,0,4.36-.61,8.18-1.82,11.49-1.22,3.3-2.81,6.07-4.78,8.29-1.97,2.23-4.2,3.9-6.67,5.02-2.48,1.12-4.98,1.68-7.5,1.68-2.8,0-5.26-.27-7.4-.79-2.13-.53-3.75-1.18-4.85-1.96l9.77-46.22ZM475.15,323.18c.5.37,1.12.62,1.85.76s1.53.21,2.4.21c1.14,0,2.33-.38,3.56-1.14,1.23-.76,2.36-1.88,3.39-3.36,1.03-1.48,1.87-3.29,2.53-5.43.66-2.14.99-4.58.99-7.3,0-3.18-.91-4.78-2.74-4.78-.91,0-1.81.26-2.7.76-.89.51-1.74,1.14-2.57,1.9-.82.76-1.56,1.58-2.22,2.46-.66.88-1.19,1.71-1.61,2.49l-2.89,13.43Z"/>
      <path class="cls-1" d="M510.91,320.22c-.27,1.33-.26,2.32.03,2.96.3.64.79.97,1.48.97,1.28,0,2.5-.25,3.64-.76l-.21,6.07c-.83.5-2.03.91-3.59,1.22-1.57.32-3.11.48-4.63.48-1.98,0-3.49-.38-4.53-1.14-1.04-.76-1.56-2.17-1.56-4.23,0-1.05.14-2.27.41-3.64l8.46-39.96h8.53l-8.05,38.03Z"/>
      <path class="cls-1" d="M527.15,295.94h8.53l-7.29,34.39h-8.53l7.29-34.39ZM528.45,286.18c0-1.51.49-2.68,1.48-3.51.99-.82,2.24-1.24,3.75-1.24s2.72.41,3.75,1.24c1.03.83,1.55,2,1.55,3.51s-.52,2.63-1.55,3.47c-1.03.85-2.28,1.27-3.75,1.27s-2.76-.42-3.75-1.27c-.99-.85-1.48-2.01-1.48-3.47Z"/>
      <path class="cls-1" d="M556.18,330.34l4.54-21.22c.27-1.28.41-2.4.41-3.35s-.2-1.79-.62-2.36c-.41-.57-1.16-.85-2.26-.85-.82,0-1.64.2-2.46.61-.82.41-1.6.96-2.32,1.64-.73.68-1.41,1.45-2.05,2.29s-1.18,1.7-1.64,2.57l-4.4,20.67h-8.53l7.29-34.39h6.47l-.34,6.05h.27c.6-.73,1.29-1.51,2.1-2.34.8-.82,1.73-1.58,2.79-2.27,1.05-.69,2.23-1.26,3.54-1.72,1.31-.46,2.78-.69,4.44-.69,2.06,0,3.71.56,4.95,1.68,1.24,1.12,1.86,2.99,1.86,5.61,0,.69-.03,1.42-.1,2.2-.07.78-.22,1.63-.45,2.55l-4.95,23.32h-8.53Z"/>
      <path class="cls-1" d="M599.44,330.34c-.6,2.71-1.4,4.99-2.41,6.84s-2.21,3.36-3.61,4.51c-1.4,1.15-3,1.97-4.81,2.48-1.81.5-3.82.76-6.02.76-1.6,0-3.04-.12-4.3-.34-1.26-.23-2.37-.5-3.34-.82-.96-.32-1.8-.65-2.51-1-.71-.34-1.27-.65-1.69-.93l3.16-6.26c.41.19.89.41,1.45.68.55.26,1.18.52,1.89.78.71.26,1.53.47,2.48.64.94.17,2.03.25,3.27.25,2.29,0,4.12-.71,5.47-2.14,1.35-1.43,2.33-3.39,2.92-5.88l1.31-5.39h-.27c-1.05,1.65-2.49,3.13-4.3,4.44-1.81,1.31-3.86,1.96-6.16,1.96-2.48,0-4.48-.93-6.02-2.79-1.54-1.86-2.3-4.34-2.3-7.46,0-3.53.5-6.84,1.51-9.94,1.01-3.1,2.42-5.8,4.23-8.12,1.81-2.31,3.95-4.14,6.43-5.47,2.48-1.33,5.2-2,8.18-2,2.8,0,5.24.24,7.33.72,2.09.48,3.77,1.02,5.05,1.62l-6.95,32.88ZM596.96,302.83c-.51-.28-1.15-.46-1.93-.55s-1.56-.14-2.34-.14c-1.47,0-2.83.44-4.09,1.32-1.26.88-2.35,2.08-3.27,3.6-.92,1.52-1.64,3.31-2.17,5.37-.53,2.05-.79,4.26-.79,6.61,0,1.48.31,2.65.93,3.53.62.88,1.43,1.31,2.44,1.31.78,0,1.58-.24,2.41-.73.82-.48,1.62-1.1,2.37-1.83.76-.74,1.43-1.56,2.03-2.46s1.08-1.74,1.45-2.53l2.96-13.5Z"/>
      <path class="cls-1" d="M627.99,295.94h4.47l1.38-6.46,9.08-2.55-1.93,9.01h8.05l-1.58,7.02h-7.98l-3.37,15.65c-.28,1.25-.41,2.26-.41,3.05,0,1.02.23,1.71.69,2.08.46.37,1.14.55,2.06.55s1.66-.1,2.37-.29c.71-.19,1.46-.51,2.24-.95v6.33c-.51.27-1.12.54-1.83.79-.71.25-1.48.46-2.31.62-.83.16-1.68.29-2.55.38-.87.09-1.68.14-2.42.14-2.35,0-4.16-.54-5.42-1.62-1.27-1.08-1.9-2.72-1.9-4.93,0-.46.03-.94.1-1.45.07-.51.15-1.03.24-1.59l3.99-18.75h-4.61l1.65-7.02Z"/>
      <path class="cls-1" d="M666.85,330.34l4.13-19.44c.46-2.01.69-3.67.69-5,0-1.19-.23-2.04-.68-2.57s-1.16-.79-2.12-.79c-.87,0-1.78.27-2.74.82-.96.55-1.87,1.23-2.74,2.06-.87.82-1.65,1.7-2.36,2.64-.71.94-1.24,1.79-1.61,2.57l-4.06,19.71h-8.53l10.18-48.15h8.53l-4.33,19.81h.27c.6-.73,1.32-1.51,2.17-2.34.85-.82,1.79-1.58,2.82-2.27,1.03-.69,2.15-1.26,3.37-1.72,1.21-.46,2.53-.69,3.96-.69,2.2,0,3.91.55,5.12,1.65,1.21,1.1,1.82,3.05,1.82,5.85,0,1.7-.27,3.85-.83,6.47l-4.54,21.39h-8.53Z"/>
      <path class="cls-1" d="M709.56,327.03c-1.42,1.19-3.26,2.2-5.5,3.03-2.25.82-4.86,1.24-7.84,1.24-3.71,0-6.64-1.09-8.77-3.27-2.13-2.18-3.2-5.22-3.2-9.12,0-3.67.57-6.98,1.72-9.94,1.15-2.96,2.65-5.47,4.51-7.53,1.86-2.06,3.96-3.66,6.29-4.78,2.34-1.12,4.68-1.68,7.02-1.68,1.88,0,3.5.24,4.85.72,1.35.48,2.47,1.15,3.34,1.99.87.85,1.51,1.82,1.92,2.92.41,1.1.62,2.27.62,3.51,0,1.88-.48,3.53-1.44,4.95-.96,1.42-2.31,2.6-4.02,3.54-1.72.94-3.8,1.65-6.23,2.13-2.43.48-5.09.72-7.98.72-.37,0-.71-.01-1.03-.03s-.66-.03-1.03-.03c-.09.55-.16,1.05-.21,1.49s-.07.84-.07,1.21c0,2.08.54,3.63,1.62,4.64,1.08,1.02,2.6,1.53,4.57,1.53s3.83-.31,5.43-.92c1.6-.61,2.82-1.22,3.65-1.83l1.79,5.5ZM694.02,310.04c1.28,0,2.65-.04,4.09-.14,1.45-.09,2.79-.3,4.02-.64,1.24-.34,2.27-.83,3.1-1.49s1.24-1.54,1.24-2.67c0-.68-.25-1.36-.76-2.06-.51-.7-1.56-1.05-3.16-1.05-2.02,0-3.77.77-5.26,2.3-1.49,1.53-2.58,3.45-3.27,5.75Z"/>
      <path class="cls-1" d="M742.93,282.19c.96-.14,2.02-.25,3.16-.34,1.15-.09,2.21-.16,3.2-.21.99-.05,1.84-.07,2.58-.07.41,0,1-.01,1.75-.03s1.59-.03,2.51-.03c2.8,0,5.34.36,7.64,1.07,2.29.71,4.25,1.8,5.88,3.27,1.63,1.47,2.89,3.35,3.78,5.64.89,2.29,1.34,5.02,1.34,8.18,0,2.02-.17,4.19-.52,6.5-.34,2.32-.93,4.64-1.75,6.98-.83,2.34-1.96,4.59-3.41,6.74-1.44,2.16-3.26,4.06-5.43,5.71-2.18,1.65-4.79,2.98-7.84,3.99-3.05,1.01-6.59,1.51-10.63,1.51-.69,0-1.38-.01-2.06-.03-.69-.02-1.17-.03-1.44-.03-.92-.05-1.94-.1-3.06-.17-1.12-.07-2.25-.14-3.37-.21-1.12-.07-1.96-.15-2.51-.24l10.18-48.22ZM743.34,322.49c.18.05.47.08.86.1.39.02.81.05,1.27.07.46.02.9.03,1.31.03h.96c3.21,0,5.94-.72,8.18-2.17,2.25-1.45,4.07-3.26,5.47-5.43,1.4-2.18,2.41-4.54,3.03-7.08.62-2.55.93-4.92.93-7.12,0-3.67-.77-6.42-2.31-8.25-1.54-1.83-4.09-2.75-7.67-2.75-.92,0-1.88.02-2.89.07s-1.79.11-2.34.2l-6.81,32.33Z"/>
      <path class="cls-1" d="M783.16,295.94h8.53l-7.29,34.39h-8.53l7.29-34.39ZM784.47,286.18c0-1.51.49-2.68,1.48-3.51.99-.82,2.24-1.24,3.75-1.24s2.72.41,3.75,1.24c1.03.83,1.55,2,1.55,3.51s-.52,2.63-1.55,3.47-2.28,1.27-3.75,1.27-2.76-.42-3.75-1.27c-.99-.85-1.48-2.01-1.48-3.47Z"/>
      <path class="cls-1" d="M819.62,330.34c-.6,2.71-1.4,4.99-2.41,6.84s-2.21,3.36-3.61,4.51c-1.4,1.15-3,1.97-4.81,2.48-1.81.5-3.82.76-6.02.76-1.6,0-3.04-.12-4.3-.34-1.26-.23-2.37-.5-3.34-.82-.96-.32-1.8-.65-2.51-1-.71-.34-1.27-.65-1.69-.93l3.16-6.26c.41.19.89.41,1.45.68.55.26,1.18.52,1.89.78.71.26,1.53.47,2.48.64.94.17,2.03.25,3.27.25,2.29,0,4.12-.71,5.47-2.14,1.35-1.43,2.33-3.39,2.92-5.88l1.31-5.39h-.27c-1.05,1.65-2.49,3.13-4.3,4.44-1.81,1.31-3.86,1.96-6.16,1.96-2.48,0-4.48-.93-6.02-2.79s-2.3-4.34-2.3-7.46c0-3.53.5-6.84,1.51-9.94,1.01-3.1,2.42-5.8,4.23-8.12,1.81-2.31,3.95-4.14,6.43-5.47,2.48-1.33,5.2-2,8.18-2,2.8,0,5.24.24,7.33.72,2.09.48,3.77,1.02,5.05,1.62l-6.95,32.88ZM817.15,302.83c-.51-.28-1.15-.46-1.93-.55s-1.56-.14-2.34-.14c-1.47,0-2.83.44-4.09,1.32-1.26.88-2.35,2.08-3.27,3.6-.92,1.52-1.64,3.31-2.17,5.37-.53,2.05-.79,4.26-.79,6.61,0,1.48.31,2.65.93,3.53.62.88,1.43,1.31,2.44,1.31.78,0,1.58-.24,2.41-.73.82-.48,1.62-1.1,2.37-1.83.76-.74,1.43-1.56,2.03-2.46s1.08-1.74,1.45-2.53l2.96-13.5Z"/>
      <path class="cls-1" d="M835.51,295.94h8.53l-7.29,34.39h-8.53l7.29-34.39ZM836.82,286.18c0-1.51.49-2.68,1.48-3.51.99-.82,2.24-1.24,3.75-1.24s2.72.41,3.75,1.24c1.03.83,1.55,2,1.55,3.51s-.52,2.63-1.55,3.47c-1.03.85-2.28,1.27-3.75,1.27s-2.76-.42-3.75-1.27c-.99-.85-1.48-2.01-1.48-3.47Z"/>
      <path class="cls-1" d="M848.38,295.94h4.47l1.38-6.46,9.08-2.55-1.93,9.01h8.05l-1.58,7.02h-7.98l-3.37,15.65c-.28,1.25-.41,2.26-.41,3.05,0,1.02.23,1.71.69,2.08.46.37,1.14.55,2.06.55s1.66-.1,2.37-.29c.71-.19,1.46-.51,2.24-.95v6.33c-.51.27-1.12.54-1.83.79-.71.25-1.48.46-2.31.62-.83.16-1.68.29-2.55.38-.87.09-1.68.14-2.42.14-2.35,0-4.16-.54-5.42-1.62-1.27-1.08-1.9-2.72-1.9-4.93,0-.46.03-.94.1-1.45.07-.51.15-1.03.24-1.59l3.99-18.75h-4.61l1.65-7.02Z"/>
      <path class="cls-1" d="M896.52,316.58c-.37,1.74-.63,3.51-.79,5.3-.16,1.79-.24,3.49-.24,5.09,0,.64.01,1.25.03,1.82.02.57.06,1.11.1,1.62h-6.26l-.96-5.92h-.27c-.51.82-1.16,1.64-1.96,2.44s-1.68,1.54-2.65,2.2c-.96.66-1.98,1.19-3.06,1.58-1.08.39-2.19.58-3.34.58-3.03,0-5.26-.99-6.71-2.96-1.44-1.97-2.17-4.61-2.17-7.91s.43-6.56,1.27-9.63c.85-3.07,2.17-5.78,3.96-8.12,1.79-2.34,4.05-4.21,6.77-5.61s5.97-2.1,9.73-2.1c1.6,0,3.36.15,5.26.45,1.9.3,3.75.7,5.54,1.21l-4.26,19.95ZM880.36,324.28c.82,0,1.6-.17,2.34-.52.73-.35,1.41-.8,2.03-1.35.62-.55,1.17-1.15,1.65-1.8s.9-1.24,1.27-1.8l3.44-16.13c-.51-.23-1.09-.4-1.75-.52s-1.32-.17-1.96-.17c-1.65,0-3.12.5-4.4,1.49-1.28.99-2.37,2.28-3.27,3.88-.89,1.59-1.57,3.39-2.03,5.4-.46,2.01-.69,4.03-.69,6.06,0,1.48.24,2.76.72,3.84.48,1.08,1.36,1.63,2.65,1.63Z"/>
      <path class="cls-1" d="M912.21,320.22c-.27,1.33-.26,2.32.03,2.96.3.64.79.97,1.48.97,1.28,0,2.5-.25,3.64-.76l-.21,6.07c-.83.5-2.03.91-3.59,1.22-1.57.32-3.11.48-4.63.48-1.98,0-3.49-.38-4.53-1.14-1.04-.76-1.56-2.17-1.56-4.23,0-1.05.14-2.27.41-3.64l8.46-39.96h8.53l-8.05,38.03Z"/>
      <path class="cls-1" d="M952.1,309.01l-.98,8.53h.34l2.68-8.67,13.6-26.69h6.04l1.99,26.83-.89,8.53h.35l2.79-8.67,11.28-26.69h9.56l-22.88,48.49h-6.25l-2.54-26.76.55-7.36h-.41l-2.61,7.43-13.67,26.69h-6.25l-2.33-48.49h9.42l.21,26.83Z"/>
      <path class="cls-1" d="M991.1,319.19c0-3.62.52-6.92,1.55-9.91,1.03-2.98,2.41-5.53,4.13-7.64,1.72-2.11,3.72-3.75,5.99-4.92,2.27-1.17,4.64-1.75,7.12-1.75,2.2,0,4.06.34,5.57,1.03,1.51.69,2.74,1.6,3.68,2.75.94,1.15,1.62,2.45,2.03,3.92.41,1.47.62,2.98.62,4.54,0,3.58-.51,6.84-1.51,9.8-1.01,2.96-2.36,5.49-4.06,7.6-1.7,2.11-3.67,3.75-5.92,4.92-2.25,1.17-4.61,1.75-7.09,1.75-2.16,0-3.99-.36-5.5-1.07-1.51-.71-2.76-1.64-3.75-2.79-.99-1.15-1.71-2.44-2.17-3.89-.46-1.45-.69-2.9-.69-4.37ZM999.84,318.05c0,4.15,1.49,6.23,4.47,6.23,1.1,0,2.18-.48,3.23-1.45,1.05-.97,1.99-2.24,2.82-3.81.83-1.57,1.48-3.35,1.96-5.33.48-1.98.72-3.97.72-5.95,0-1.85-.31-3.27-.93-4.26s-1.78-1.49-3.47-1.49c-1.1,0-2.18.46-3.23,1.38-1.05.92-1.99,2.14-2.82,3.63-.83,1.5-1.49,3.22-1.99,5.16-.51,1.94-.76,3.9-.76,5.88Z"/>
      <path class="cls-1" d="M1037.74,295.94l.07,6.18h.27c1.01-1.87,2.24-3.45,3.68-4.76,1.44-1.31,3.27-1.96,5.47-1.96.96,0,2.11.19,3.44.56l-2.13,7.49c-.46-.14-.89-.25-1.31-.34-.41-.09-.85-.14-1.31-.14-1.88,0-3.61.61-5.19,1.81-1.58,1.21-2.79,2.61-3.61,4.21l-4.47,21.35h-8.53l7.29-34.39h6.33Z"/>
      <path class="cls-1" d="M1058.1,320.22c-.27,1.33-.26,2.32.03,2.96.3.64.79.97,1.48.97,1.28,0,2.5-.25,3.64-.76l-.21,6.07c-.83.5-2.03.91-3.59,1.22-1.57.32-3.11.48-4.63.48-1.98,0-3.49-.38-4.53-1.14-1.04-.76-1.56-2.17-1.56-4.23,0-1.05.14-2.27.41-3.64l8.46-39.96h8.53l-8.05,38.03Z"/>
      <path class="cls-1" d="M1095.59,318.23c-.41,1.92-.71,3.71-.9,5.36-.18,1.65-.27,3.21-.27,4.68v1.07c0,.34.02.7.07,1.07h-5.85l-.96-5.92h-.27c-.5.82-1.16,1.64-1.96,2.44-.8.8-1.68,1.54-2.64,2.2-.96.66-1.98,1.19-3.05,1.58-1.07.39-2.14.58-3.19.58-2.83,0-5.02-1.01-6.55-3.03-1.53-2.02-2.3-4.79-2.3-8.32,0-3.21.43-6.31,1.3-9.29.87-2.98,2.09-5.63,3.67-7.94,1.58-2.32,3.5-4.16,5.76-5.54,2.26-1.38,4.77-2.06,7.51-2.06,1.33,0,2.42.08,3.29.24.87.16,1.69.43,2.47.79l2.96-13.96h8.53l-7.63,36.04ZM1090.22,303.17c-.55-.37-1.17-.63-1.88-.8-.71-.16-1.65-.24-2.84-.24-1.37,0-2.61.47-3.73,1.42-1.12.95-2.06,2.21-2.84,3.81-.78,1.59-1.38,3.43-1.81,5.5-.43,2.08-.65,4.25-.65,6.51,0,1.34.3,2.49.89,3.46.59.97,1.43,1.45,2.53,1.45.68,0,1.38-.17,2.08-.52s1.37-.8,1.98-1.35c.61-.55,1.19-1.15,1.71-1.8.53-.65.95-1.24,1.26-1.8l3.3-15.64Z"/>
    </g>
  </g>
</svg>